<svg width="28" height="28" viewBox="0 0 28 28" fill="none" xmlns="http://www.w3.org/2000/svg">
<path fill-rule="evenodd" clip-rule="evenodd" d="M6 10C6 7.79086 7.79086 6 10 6H18C20.2091 6 22 7.79086 22 10V14C22 14.5523 21.5523 15 21 15C20.4477 15 20 14.5523 20 14V10C20 8.89543 19.1046 8 18 8H10C8.89543 8 8 8.89543 8 10V18C8 19.1046 8.89543 20 10 20H14C14.5523 20 15 20.4477 15 21C15 21.5523 14.5523 22 14 22H10C7.79086 22 6 20.2091 6 18V10ZM21 17C21.5523 17 22 17.4477 22 18V20H24C24.5523 20 25 20.4477 25 21C25 21.5523 24.5523 22 24 22H22V24C22 24.5523 21.5523 25 21 25C20.4477 25 20 24.5523 20 24V22H18C17.4477 22 17 21.5523 17 21C17 20.4477 17.4477 20 18 20H20V18C20 17.4477 20.4477 17 21 17Z" fill="white"/>
</svg>
