<svg width="28" height="28" viewBox="0 0 28 28" fill="none" xmlns="http://www.w3.org/2000/svg">
<path fill-rule="evenodd" clip-rule="evenodd" d="M17 10H11H9.00003V19C9.00003 20.1046 9.89546 21 11 21H17C18.1046 21 19 20.1046 19 19V10H17ZM21 10.3874L21.1838 10.4487C21.7077 10.6233 22.2741 10.3402 22.4487 9.81623C22.6234 9.29228 22.3402 8.72596 21.8163 8.55132L20.9321 8.25658C20.4222 8.08664 19.8883 8 19.3509 8H18C18 6.34315 16.6569 5 15 5H13C11.3432 5 10 6.34315 10 8H8.64914C8.11173 8 7.57783 8.08664 7.068 8.25658L6.1838 8.55132C5.65986 8.72596 5.3767 9.29228 5.55134 9.81623C5.72599 10.3402 6.29231 10.6233 6.81625 10.4487L7.00003 10.3874V19C7.00003 21.2091 8.79089 23 11 23H17C19.2092 23 21 21.2091 21 19V10.3874ZM12 8H16C16 7.44772 15.5523 7 15 7H13C12.4477 7 12 7.44772 12 8Z" fill="white"/>
</svg>
