<svg width="28" height="28" viewBox="0 0 28 28" fill="none" xmlns="http://www.w3.org/2000/svg">
<path d="M15.7071 9.70711C16.0976 9.31658 16.0976 8.68342 15.7071 8.29289C15.3166 7.90237 14.6834 7.90237 14.2929 8.29289L15.7071 9.70711ZM10 14L9.29289 13.2929L8.58579 14L9.29289 14.7071L10 14ZM14.2929 19.7071C14.6834 20.0976 15.3166 20.0976 15.7071 19.7071C16.0976 19.3166 16.0976 18.6834 15.7071 18.2929L14.2929 19.7071ZM14.2929 8.29289L9.29289 13.2929L10.7071 14.7071L15.7071 9.70711L14.2929 8.29289ZM9.29289 14.7071L14.2929 19.7071L15.7071 18.2929L10.7071 13.2929L9.29289 14.7071Z" fill="white"/>
</svg>
