<svg width="28" height="28" viewBox="0 0 28 28" fill="none" xmlns="http://www.w3.org/2000/svg">
<path fill-rule="evenodd" clip-rule="evenodd" d="M16 10C16 9.44772 15.5523 9 15 9H13C12.4477 9 12 9.44772 12 10H16ZM18 10H18.3509C18.8883 10 19.4222 10.0866 19.9321 10.2566L20.8163 10.5513C21.3402 10.726 21.6234 11.2923 21.4487 11.8162C21.2741 12.3402 20.7077 12.6233 20.1838 12.4487L20 12.3874V18C20 20.2091 18.2092 22 16 22H12C9.79089 22 8.00003 20.2091 8.00003 18V12.3874L7.81625 12.4487C7.29231 12.6233 6.72599 12.3402 6.55134 11.8162C6.3767 11.2923 6.65986 10.726 7.1838 10.5513L8.068 10.2566C8.57783 10.0866 9.11173 10 9.64914 10H10C10 8.34315 11.3432 7 13 7H15C16.6569 7 18 8.34315 18 10ZM10 12V18C10 19.1046 10.8955 20 12 20H16C17.1046 20 18 19.1046 18 18V12H10Z" fill="white"/>
</svg>
