<svg width="28" height="28" viewBox="0 0 28 28" fill="none" xmlns="http://www.w3.org/2000/svg">
<path fill-rule="evenodd" clip-rule="evenodd" d="M11 11C11 9.34315 12.3432 8 14 8C15.6569 8 17 9.34315 17 11C17 12.6569 15.6569 14 14 14C12.3432 14 11 12.6569 11 11ZM14 6C11.2386 6 9.00001 8.23858 9.00001 11C9.00001 13.7614 11.2386 16 14 16C16.7614 16 19 13.7614 19 11C19 8.23858 16.7614 6 14 6ZM8.41757 20.8976C8.19797 21.4044 7.60915 21.6371 7.1024 21.4176C6.59565 21.198 6.36286 20.6091 6.58245 20.1024L7.14371 18.8072C7.61914 17.71 8.70067 17 9.89638 17H18.1036C19.2993 17 20.3809 17.71 20.8563 18.8072L21.4176 20.1024C21.6372 20.6091 21.4044 21.198 20.8976 21.4176C20.3909 21.6371 19.802 21.4044 19.5825 20.8976L19.0212 19.6024C18.8627 19.2367 18.5022 19 18.1036 19H9.89638C9.49781 19 9.1373 19.2367 8.97883 19.6024L8.41757 20.8976Z" fill="#FFF"/>
</svg>
